<svg id="visual" viewBox="0 0 960 540" width="960" height="540" xmlns="http://www.w3.org/2000/svg" xmlns:xlink="http://www.w3.org/1999/xlink" version="1.1"><path d="M496 540L471 540L471 463L305 463L305 386L438 386L438 309L381 309L381 231L393 231L393 154L468 154L468 77L341 77L341 0L960 0L960 77L960 77L960 154L960 154L960 231L960 231L960 309L960 309L960 386L960 386L960 463L960 463L960 540L960 540Z" fill="#44be9d"></path><path d="M516 540L475 540L475 463L582 463L582 386L432 386L432 309L475 309L475 231L555 231L555 154L493 154L493 77L582 77L582 0L960 0L960 77L960 77L960 154L960 154L960 231L960 231L960 309L960 309L960 386L960 386L960 463L960 463L960 540L960 540Z" fill="#31ae98"></path><path d="M611 540L536 540L536 463L647 463L647 386L675 386L675 309L653 309L653 231L535 231L535 154L606 154L606 77L550 77L550 0L960 0L960 77L960 77L960 154L960 154L960 231L960 231L960 309L960 309L960 386L960 386L960 463L960 463L960 540L960 540Z" fill="#1f9f91"></path><path d="M654 540L679 540L679 463L702 463L702 386L771 386L771 309L697 309L697 231L690 231L690 154L731 154L731 77L762 77L762 0L960 0L960 77L960 77L960 154L960 154L960 231L960 231L960 309L960 309L960 386L960 386L960 463L960 463L960 540L960 540Z" fill="#0d8f89"></path><path d="M846 540L874 540L874 463L771 463L771 386L833 386L833 309L806 309L806 231L880 231L880 154L836 154L836 77L796 77L796 0L960 0L960 77L960 77L960 154L960 154L960 231L960 231L960 309L960 309L960 386L960 386L960 463L960 463L960 540L960 540Z" fill="#008080"></path></svg>