<svg id="visual" viewBox="0 0 960 540" width="960" height="540" xmlns="http://www.w3.org/2000/svg" xmlns:xlink="http://www.w3.org/1999/xlink" version="1.1"><path d="M0 71L32 63.8C64 56.7 128 42.3 192 37.8C256 33.3 320 38.7 384 46.8C448 55 512 66 576 68.7C640 71.3 704 65.7 768 64.7C832 63.7 896 67.3 928 69.2L960 71L960 0L928 0C896 0 832 0 768 0C704 0 640 0 576 0C512 0 448 0 384 0C320 0 256 0 192 0C128 0 64 0 32 0L0 0Z" fill="#102226"></path><path d="M0 158L32 164.2C64 170.3 128 182.7 192 190.7C256 198.7 320 202.3 384 197C448 191.7 512 177.3 576 172.8C640 168.3 704 173.7 768 176.3C832 179 896 179 928 179L960 179L960 69L928 67.2C896 65.3 832 61.7 768 62.7C704 63.7 640 69.3 576 66.7C512 64 448 53 384 44.8C320 36.7 256 31.3 192 35.8C128 40.3 64 54.7 32 61.8L0 69Z" fill="#10262a"></path><path d="M0 314L32 316.7C64 319.3 128 324.7 192 318.3C256 312 320 294 384 287.8C448 281.7 512 287.3 576 285.7C640 284 704 275 768 288.5C832 302 896 338 928 356L960 374L960 177L928 177C896 177 832 177 768 174.3C704 171.7 640 166.3 576 170.8C512 175.3 448 189.7 384 195C320 200.3 256 196.7 192 188.7C128 180.7 64 168.3 32 162.2L0 156Z" fill="#11292e"></path><path d="M0 363L32 372.8C64 382.7 128 402.3 192 405C256 407.7 320 393.3 384 389.8C448 386.3 512 393.7 576 389.2C640 384.7 704 368.3 768 375.5C832 382.7 896 413.3 928 428.7L960 444L960 372L928 354C896 336 832 300 768 286.5C704 273 640 282 576 283.7C512 285.3 448 279.7 384 285.8C320 292 256 310 192 316.3C128 322.7 64 317.3 32 314.7L0 312Z" fill="#112d32"></path><path d="M0 422L32 425.7C64 429.3 128 436.7 192 433.2C256 429.7 320 415.3 384 411.7C448 408 512 415 576 418.5C640 422 704 422 768 429.2C832 436.3 896 450.7 928 457.8L960 465L960 442L928 426.7C896 411.3 832 380.7 768 373.5C704 366.3 640 382.7 576 387.2C512 391.7 448 384.3 384 387.8C320 391.3 256 405.7 192 403C128 400.3 64 380.7 32 370.8L0 361Z" fill="#193b41"></path><path d="M0 503L32 503C64 503 128 503 192 504.8C256 506.7 320 510.3 384 512.2C448 514 512 514 576 509.5C640 505 704 496 768 496C832 496 896 505 928 509.5L960 514L960 463L928 455.8C896 448.7 832 434.3 768 427.2C704 420 640 420 576 416.5C512 413 448 406 384 409.7C320 413.3 256 427.7 192 431.2C128 434.7 64 427.3 32 423.7L0 420Z" fill="#214950"></path><path d="M0 541L32 541C64 541 128 541 192 541C256 541 320 541 384 541C448 541 512 541 576 541C640 541 704 541 768 541C832 541 896 541 928 541L960 541L960 512L928 507.5C896 503 832 494 768 494C704 494 640 503 576 507.5C512 512 448 512 384 510.2C320 508.3 256 504.7 192 502.8C128 501 64 501 32 501L0 501Z" fill="#295860"></path></svg>